<svg version="1.2" baseProfile="tiny-ps" xmlns="http://www.w3.org/2000/svg" viewBox="0 0 718 132" width="718" height="132">
	<title>Tuwaiq1000 Logo-ai</title>
	<style>
		tspan { white-space:pre }
		.shp0 { fill: #0096a4 } 
		.shp1 { fill: #ffffff } 
		.shp2 { fill: #5e3464 } 
		.shp3 { fill: #071f3e } 
		.shp4 { fill: #a3000c } 
		.shp5 { fill: #370507 } 
		.shp6 { fill: #235731 } 
		.shp7 { fill: #db9745 } 
		.shp8 { fill: #333 } 
	</style>
	<g id="Layer 1">
		<g id="&lt;Group&gt;">
			<path id="&lt;Compound Path&gt;" fill-rule="evenodd" class="shp0" d="M130.5 65L121.23 74.71L113.53 82.64L105.84 74.71L105.91 74.71L96.64 65L105.91 55.36L105.84 55.36L113.53 47.36L113.6 47.43L121.23 55.36L121.16 55.36L130.5 65ZM120.8 65L113.53 57.8L106.28 65L113.53 72.27L120.8 65Z" />
			<g id="&lt;Group&gt;">
				<path id="&lt;Compound Path&gt;" fill-rule="evenodd" class="shp0" d="M130.5 65L121.23 74.71L113.53 82.64L105.84 74.71L105.91 74.71L96.64 65L105.91 55.36L105.84 55.36L113.53 47.36L113.6 47.43L121.23 55.36L121.16 55.36L130.5 65ZM120.8 65L113.53 57.8L106.28 65L113.53 72.27L120.8 65Z" />
				<path id="&lt;Compound Path&gt;" fill-rule="evenodd" class="shp0" d="M144.6 65C144.6 77.82 149.06 89.65 156.5 98.99C146.43 111.68 130.94 119.81 113.53 119.81C98.03 119.81 84 113.33 73.99 102.97C74.73 100.71 75.15 98.25 75.15 95.76L75.15 25.87C85.04 16.25 98.59 10.19 113.53 10.19C130.94 10.19 146.43 18.32 156.5 31.01C149.06 40.35 144.6 52.19 144.6 65ZM131.91 65L141.18 55.36L123.55 55.36L132.4 46.2L114.76 46.2L123.55 37L103.59 37L112.44 46.2L94.69 46.2L103.52 55.36L85.88 55.36L95.22 65L85.95 74.71L103.52 74.71L94.69 83.87L112.32 83.87L103.52 93.02L123.48 93.02L114.7 83.87L132.4 83.87L123.55 74.71L141.18 74.71L131.91 65Z" />
				<path id="&lt;Compound Path&gt;" fill-rule="evenodd" class="shp1" d="M141.18 74.71L123.55 74.71L132.4 83.87L114.7 83.87L123.48 93.02L103.52 93.02L112.32 83.87L94.69 83.87L103.52 74.71L85.95 74.71L95.22 65L85.88 55.36L103.52 55.36L94.69 46.2L112.44 46.2L103.59 37L123.55 37L114.76 46.2L132.4 46.2L123.55 55.36L141.18 55.36L131.91 65L141.18 74.71ZM130.5 65L121.16 55.36L121.23 55.36L113.6 47.43L113.53 47.36L105.84 55.36L105.91 55.36L96.64 65L105.91 74.71L105.84 74.71L113.53 82.64L121.23 74.71L130.5 65Z" />
				<path id="&lt;Compound Path&gt;" fill-rule="evenodd" class="shp0" d="M130.5 65L121.23 74.71L113.53 82.64L105.84 74.71L105.91 74.71L96.64 65L105.91 55.36L105.84 55.36L113.53 47.36L113.6 47.43L121.23 55.36L121.16 55.36L130.5 65ZM120.8 65L113.53 57.8L106.28 65L113.53 72.27L120.8 65Z" />
				<path id="&lt;Path&gt;" class="shp1" d="M120.8 65L113.53 72.27L106.28 65L113.53 57.8L120.8 65Z" />
			</g>
			<g id="&lt;Group&gt;">
				<path id="&lt;Path&gt;" class="shp2" d="M182.01 49.5C182.01 50.59 181.15 51.52 179.99 51.52C178.9 51.52 177.99 50.59 177.99 49.5C177.99 48.34 178.9 47.48 179.99 47.48C181.15 47.48 182.01 48.34 182.01 49.5Z" />
				<path id="&lt;Path&gt;" class="shp2" d="M201.41 42.05C201.41 43.16 200.57 44.06 199.46 44.06C198.3 44.06 197.46 43.16 197.46 42.05C197.46 40.95 198.3 40.04 199.46 40.04C200.57 40.04 201.41 40.95 201.41 42.05Z" />
				<path id="&lt;Path&gt;" class="shp2" d="M220.89 49.5C220.89 50.59 219.98 51.52 218.87 51.52C217.72 51.52 216.86 50.59 216.86 49.5C216.86 48.34 217.72 47.48 218.87 47.48C219.98 47.48 220.89 48.34 220.89 49.5Z" />
				<path id="&lt;Compound Path&gt;" fill-rule="evenodd" class="shp2" d="M230.53 65C230.53 77.82 234.99 89.65 242.43 98.99C232.36 111.68 216.86 119.81 199.46 119.81C182.08 119.81 166.51 111.68 156.5 98.99C163.89 89.65 168.35 77.82 168.35 65C168.35 52.19 163.89 40.35 156.5 31.01C166.51 18.32 182.08 10.19 199.46 10.19C216.86 10.19 232.36 18.32 242.43 31.01C234.99 40.35 230.53 52.19 230.53 65ZM223.93 65C223.93 62.26 221.63 59.93 218.87 59.93C216.56 59.93 214.66 61.4 214.05 63.47L184.87 63.47C184.21 61.4 182.31 59.93 179.99 59.93C177.2 59.93 174.93 62.26 174.93 65C174.93 67.81 177.25 70.07 179.99 70.07C182.31 70.07 184.21 68.6 184.87 66.53L214.05 66.53C214.66 68.6 216.56 70.07 218.87 70.07C221.68 70.07 223.93 67.81 223.93 65ZM223.93 80.57C223.93 77.69 221.63 75.43 218.87 75.43C216.56 75.43 214.66 76.9 214.05 78.98L209.48 78.98L207.41 71.34L191.47 71.34L189.4 79.04L184.87 79.04C184.21 76.97 182.31 75.5 179.99 75.5C177.2 75.5 174.93 77.76 174.93 80.57C174.93 83.38 177.25 85.63 179.99 85.63C182.31 85.63 184.21 84.17 184.87 82.08L191.77 82.08L193.86 74.46L197.88 74.46L197.88 83.12C195.86 83.8 194.35 85.68 194.35 88.01C194.35 90.82 196.65 93.07 199.46 93.07C202.27 93.07 204.53 90.75 204.53 88.01C204.53 85.68 203.06 83.8 200.99 83.12L200.99 74.41L205.02 74.41L207.1 82.08L214.05 82.08C214.66 84.17 216.56 85.63 218.87 85.63C221.68 85.63 223.93 83.31 223.93 80.57ZM223.93 49.5C223.93 46.69 221.63 44.44 218.87 44.44C216.56 44.44 214.66 45.9 214.05 47.97L207.1 47.97L205.02 55.54L200.99 55.54L200.99 46.88C203.06 46.27 204.53 44.37 204.53 42.05C204.53 39.18 202.2 37 199.46 37C196.6 37 194.35 39.25 194.35 42.05C194.35 44.37 195.86 46.27 197.88 46.88L197.88 55.54L193.86 55.54L191.77 47.97L184.87 47.97C184.21 45.9 182.31 44.44 179.99 44.44C177.2 44.44 174.93 46.69 174.93 49.5C174.93 52.24 177.25 54.63 179.99 54.63C182.31 54.63 184.21 53.17 184.87 51.08L189.4 51.08L191.47 58.72L207.34 58.72L209.48 51.03L214.05 51.03C214.66 53.1 216.56 54.57 218.87 54.57C221.68 54.57 223.93 52.24 223.93 49.5ZM220.89 80.57C220.89 81.66 219.98 82.57 218.87 82.57C217.72 82.57 216.86 81.66 216.86 80.57C216.86 79.41 217.72 78.55 218.87 78.55C219.98 78.55 220.89 79.41 220.89 80.57ZM201.41 88.01C201.41 89.12 200.57 90.02 199.46 90.02C198.3 90.02 197.46 89.12 197.46 88.01C197.46 86.84 198.3 86 199.46 86C200.57 86 201.41 86.84 201.41 88.01ZM182.01 80.57C182.01 81.66 181.15 82.57 179.99 82.57C178.9 82.57 177.99 81.66 177.99 80.57C177.99 79.41 178.9 78.55 179.99 78.55C181.15 78.55 182.01 79.41 182.01 80.57ZM220.89 65C220.89 66.16 219.98 67.02 218.87 67.02C217.72 67.02 216.86 66.16 216.86 65C216.86 63.91 217.72 62.98 218.87 62.98C219.98 62.98 220.89 63.91 220.89 65ZM182.01 65C182.01 66.16 181.15 67.02 179.99 67.02C178.9 67.02 177.99 66.16 177.99 65C177.99 63.91 178.9 62.98 179.99 62.98C181.15 62.98 182.01 63.91 182.01 65Z" />
				<path id="&lt;Compound Path&gt;" fill-rule="evenodd" class="shp1" d="M223.93 49.5C223.93 52.24 221.68 54.57 218.87 54.57C216.56 54.57 214.66 53.1 214.05 51.03L209.48 51.03L207.34 58.72L191.47 58.72L189.4 51.08L184.87 51.08C184.21 53.17 182.31 54.63 179.99 54.63C177.25 54.63 174.93 52.24 174.93 49.5C174.93 46.69 177.2 44.44 179.99 44.44C182.31 44.44 184.21 45.9 184.87 47.97L191.77 47.97L193.86 55.54L197.88 55.54L197.88 46.88C195.86 46.27 194.35 44.37 194.35 42.05C194.35 39.25 196.6 37 199.46 37C202.2 37 204.53 39.18 204.53 42.05C204.53 44.37 203.06 46.27 200.99 46.88L200.99 55.54L205.02 55.54L207.1 47.97L214.05 47.97C214.66 45.9 216.56 44.44 218.87 44.44C221.63 44.44 223.93 46.69 223.93 49.5ZM182.01 49.5C182.01 48.34 181.15 47.48 179.99 47.48C178.9 47.48 177.99 48.34 177.99 49.5C177.99 50.59 178.9 51.52 179.99 51.52C181.15 51.52 182.01 50.59 182.01 49.5ZM201.41 42.05C201.41 40.95 200.57 40.04 199.46 40.04C198.3 40.04 197.46 40.95 197.46 42.05C197.46 43.16 198.3 44.06 199.46 44.06C200.57 44.06 201.41 43.16 201.41 42.05ZM220.89 49.5C220.89 48.34 219.98 47.48 218.87 47.48C217.72 47.48 216.86 48.34 216.86 49.5C216.86 50.59 217.72 51.52 218.87 51.52C219.98 51.52 220.89 50.59 220.89 49.5Z" />
				<path id="&lt;Compound Path&gt;" fill-rule="evenodd" class="shp1" d="M223.93 65C223.93 67.81 221.68 70.07 218.87 70.07C216.56 70.07 214.66 68.6 214.05 66.53L184.87 66.53C184.21 68.6 182.31 70.07 179.99 70.07C177.25 70.07 174.93 67.81 174.93 65C174.93 62.26 177.2 59.93 179.99 59.93C182.31 59.93 184.21 61.4 184.87 63.47L214.05 63.47C214.66 61.4 216.56 59.93 218.87 59.93C221.63 59.93 223.93 62.26 223.93 65ZM182.01 65C182.01 63.91 181.15 62.98 179.99 62.98C178.9 62.98 177.99 63.91 177.99 65C177.99 66.16 178.9 67.02 179.99 67.02C181.15 67.02 182.01 66.16 182.01 65ZM220.89 65C220.89 63.91 219.98 62.98 218.87 62.98C217.72 62.98 216.86 63.91 216.86 65C216.86 66.16 217.72 67.02 218.87 67.02C219.98 67.02 220.89 66.16 220.89 65Z" />
				<path id="&lt;Compound Path&gt;" fill-rule="evenodd" class="shp1" d="M223.93 80.57C223.93 83.31 221.68 85.63 218.87 85.63C216.56 85.63 214.66 84.17 214.05 82.08L207.1 82.08L205.02 74.41L200.99 74.41L200.99 83.12C203.06 83.8 204.53 85.68 204.53 88.01C204.53 90.75 202.27 93.07 199.46 93.07C196.65 93.07 194.35 90.82 194.35 88.01C194.35 85.68 195.86 83.8 197.88 83.12L197.88 74.46L193.86 74.46L191.77 82.08L184.87 82.08C184.21 84.17 182.31 85.63 179.99 85.63C177.25 85.63 174.93 83.38 174.93 80.57C174.93 77.76 177.2 75.5 179.99 75.5C182.31 75.5 184.21 76.97 184.87 79.04L189.4 79.04L191.47 71.34L207.41 71.34L209.48 78.98L214.05 78.98C214.66 76.9 216.56 75.43 218.87 75.43C221.63 75.43 223.93 77.69 223.93 80.57ZM182.01 80.57C182.01 79.41 181.15 78.55 179.99 78.55C178.9 78.55 177.99 79.41 177.99 80.57C177.99 81.66 178.9 82.57 179.99 82.57C181.15 82.57 182.01 81.66 182.01 80.57ZM199.46 86C198.3 86 197.46 86.84 197.46 88.01C197.46 89.12 198.3 90.02 199.46 90.02C200.57 90.02 201.41 89.12 201.41 88.01C201.41 86.84 200.57 86 199.46 86ZM220.89 80.57C220.89 79.41 219.98 78.55 218.87 78.55C217.72 78.55 216.86 79.41 216.86 80.57C216.86 81.66 217.72 82.57 218.87 82.57C219.98 82.57 220.89 81.66 220.89 80.57Z" />
				<path id="&lt;Path&gt;" class="shp3" d="M168.34 65C168.34 77.82 163.89 89.66 156.5 98.99C149.06 89.66 144.6 77.82 144.6 65C144.6 52.18 149.06 40.35 156.5 31.01C163.89 40.35 168.34 52.18 168.34 65Z" />
			</g>
			<g id="&lt;Group&gt;">
				<path id="&lt;Path&gt;" class="shp4" d="M287.9 80.31L287.9 87.95L282.76 87.95L282.76 80.31C282.76 78.92 283.93 77.76 285.34 77.76C286.74 77.76 287.9 78.92 287.9 80.31Z" />
				<path id="&lt;Path&gt;" class="shp4" d="M292.96 87.95L292.96 80.31C292.96 76.11 289.55 72.69 285.34 72.69C281.12 72.69 277.7 76.11 277.7 80.31L277.7 87.95L269.1 87.95L285.34 56.1L301.56 87.95L292.96 87.95Z" />
				<path id="&lt;Compound Path&gt;" fill-rule="evenodd" class="shp4" d="M340.13 65C340.13 95.21 315.55 119.81 285.34 119.81C267.94 119.81 252.44 111.68 242.43 98.99C249.81 89.65 254.27 77.82 254.27 65C254.27 52.19 249.81 40.35 242.43 31.01C252.44 18.32 267.94 10.19 285.34 10.19C315.55 10.19 340.13 34.79 340.13 65ZM313.34 87.95L307.3 87.95L288.2 50.48L295.03 37L289.66 37L285.34 44.81L281.49 37L276.05 37L282.46 50.48L263.36 87.95L257.27 87.95L260.85 93.07L309.93 93.07L313.34 87.95Z" />
				<path id="&lt;Compound Path&gt;" fill-rule="evenodd" class="shp1" d="M313.34 87.95L309.93 93.07L260.85 93.07L257.27 87.95L263.36 87.95L282.46 50.48L276.05 37L281.49 37L285.34 44.81L289.66 37L295.03 37L288.2 50.48L307.3 87.95L313.34 87.95ZM301.56 87.95L285.34 56.1L269.1 87.95L277.7 87.95L277.7 80.31C277.7 76.11 281.12 72.69 285.34 72.69C289.55 72.69 292.96 76.11 292.96 80.31L292.96 87.95L301.56 87.95ZM287.9 80.31C287.9 78.92 286.74 77.76 285.34 77.76C283.93 77.76 282.76 78.92 282.76 80.31L282.76 87.95L287.9 87.95L287.9 80.31Z" />
				<path id="&lt;Path&gt;" class="shp5" d="M254.27 65C254.27 77.82 249.82 89.66 242.43 98.99C234.98 89.66 230.53 77.82 230.53 65C230.53 52.18 234.98 40.35 242.43 31.01C249.82 40.35 254.27 52.18 254.27 65Z" />
			</g>
			<path id="&lt;Path&gt;" class="shp6" d="M75.15 25.88L75.15 95.76C75.15 98.26 74.72 100.7 73.99 102.96C64.59 93.07 58.73 79.71 58.73 65C58.73 49.74 65.02 35.89 75.15 25.88Z" />
			<path id="&lt;Path&gt;" class="shp7" d="M75.15 25.88C65.02 35.89 58.73 49.74 58.73 65C58.73 79.71 64.59 93.07 73.99 102.96C70.94 112.36 62.21 119.07 51.9 119.07C39.02 119.07 28.58 108.64 28.58 95.76L28.58 50.84L8.69 50.84C6.86 50.84 5.39 49.38 5.39 47.55C5.39 46.39 6 45.35 6.98 44.74L28.65 31.86L29.44 31.37L61.54 12.27C67.52 8.67 75.15 13 75.15 20.02L75.15 25.88Z" />
			<g id="&lt;Group&gt;">
				<path id="&lt;Path&gt;" class="shp8" d="M497.69 94.82C496.53 94.8 494.84 95.18 493.33 96.12C490.9 97.64 489.78 99.89 489.9 102.72C490.01 105.54 491.31 107.62 493.9 108.85C495.92 109.8 498.04 110 500.19 109.6C503.03 109.09 505.38 107.78 506.27 104.82C507.17 101.81 506.67 99.05 504.26 96.86C502.59 95.34 500.52 94.83 497.69 94.82Z" />
				<g id="&lt;Group&gt;">
					<path id="&lt;Compound Path&gt;" fill-rule="evenodd" class="shp8" d="M705.9 61.95C706.42 64.49 706.62 67.06 706.61 69.64C706.6 75.57 706.61 81.49 706.61 87.41C706.61 88.7 706.61 88.7 682.41 88.7L574.55 88.7C574.58 89.1 574.46 89.75 574.42 89.97C573.22 97.56 568.86 102.31 561.51 104.41C560.61 104.66 559.71 104.9 558.8 105.09C553.44 106.26 547.98 106.48 542.53 106.47C537.88 106.45 530.15 105.89 519.35 104.76L519.35 90.82C531.87 91.55 541.28 91.94 547.58 91.99C549.67 92 551.75 91.94 553.84 91.7C554.59 91.62 555.32 91.43 556.03 91.14C556.69 90.88 557.26 90.51 557.66 89.89C557.83 89.6 558.11 89.27 557.97 88.94C557.92 88.78 557.8 88.73 557.67 88.7C557.5 88.67 557.31 88.69 557.13 88.7C557.1 88.71 557.06 88.71 557.04 88.71C556.45 88.71 555.84 88.7 555.25 88.7C551.14 88.7 547.04 88.77 542.94 88.56C537.42 88.28 532.03 87.36 527.01 84.92C519.62 81.31 515.7 75.35 515.12 67.2C514.79 62.89 515.31 58.69 517.26 54.75C520.55 48.08 526.13 44.38 533.1 42.43C536.51 41.48 540.01 41.24 543.53 41.23C553.69 41.21 563.85 41.23 574.01 41.2C574.87 41.2 575 41.55 575 42.27C574.98 51.77 574.98 61.25 574.99 70.74C574.99 72.02 574.99 72.02 576.28 72.02L593.32 72.02C594.62 72.02 594.64 72.02 594.64 70.73C594.64 63.47 594.62 56.21 594.64 48.97C594.65 40.81 594.68 32.66 594.71 24.51C594.71 23.38 594.73 23.35 595.88 23.35L610.25 23.35C611.33 23.35 611.38 23.41 611.38 24.5C611.4 29.69 611.43 34.88 611.45 40.08C611.46 41.22 611.46 41.23 612.6 41.23C625.4 41.23 665.28 41.22 678.07 41.23C682.01 41.23 685.91 41.56 689.66 42.86C698.82 46.03 704.02 52.59 705.9 61.95ZM558.29 58.85C558.29 58.02 557.98 57.81 557.23 57.81C554.03 57.84 550.85 57.83 547.65 57.83C545.07 57.83 542.49 57.81 539.91 57.83C538.4 57.84 536.89 57.92 535.44 58.42C532.51 59.43 530.77 61.8 530.75 64.84C530.73 68.03 532.35 70.32 535.36 71.39C536.66 71.86 538.01 72 539.37 72.01C545.35 72.03 551.33 72.01 557.3 72.03C558.08 72.04 558.29 71.78 558.28 71.03C558.25 66.97 558.24 62.91 558.29 58.85ZM689.88 71.01C689.82 69.47 689.89 67.93 689.86 66.4C689.79 62.65 687.79 59.83 684.32 58.55C683.03 58.07 681.66 57.93 680.3 57.93C666.7 57.91 626.01 57.93 612.42 57.91C611.64 57.91 611.43 58.17 611.44 58.91C611.47 62.89 611.45 66.85 611.46 70.83C611.46 72.02 611.46 72.02 612.66 72.02L637.11 72.02C645.33 72.02 680.6 72.01 688.81 72.03C689.58 72.04 689.91 71.83 689.88 71.01Z" />
					<path id="&lt;Compound Path&gt;" fill-rule="evenodd" class="shp8" d="M502.53 88.7L465.27 88.7C464.92 88.7 464.57 88.72 464.22 88.7C463.54 88.65 463.3 88.95 463.31 89.61C463.34 91.45 463.31 93.27 463.31 95.1L463.31 104.85C463.31 106.39 463.31 106.4 461.8 106.4L428.11 106.4L428.11 106.33C417 106.33 387.14 106.36 376.02 106.31C372.76 106.29 369.55 105.72 366.44 104.68C358.17 101.95 353.37 96.12 351.47 87.74C350.78 84.67 350.42 81.57 350.42 78.43C350.44 73.14 350.43 67.86 350.43 62.59C350.43 61.4 350.44 61.4 351.65 61.4C356.44 61.39 361.23 61.41 366.02 61.37C366.89 61.37 367.15 61.63 367.14 62.51C367.1 67.38 367.07 72.25 367.15 77.13C367.21 80.8 368.26 84.12 371.25 86.54C373.3 88.19 375.69 89.01 378.25 89.43C379.77 89.68 381.31 89.74 382.85 89.74C397.42 89.76 430.73 89.75 445.3 89.75C446.63 89.75 446.63 89.75 446.64 88.4L446.64 85.79C446.63 84.58 446.63 84.57 445.44 84.57C440.01 84.57 434.59 84.56 429.16 84.57C425.37 84.57 421.62 84.23 417.97 83.16C411.82 81.35 406.97 77.9 404.82 71.66C402.46 64.81 402.77 58.04 406.65 51.73C409.15 47.66 412.95 45.16 417.35 43.47C421.86 41.75 426.58 41.25 431.36 41.25C441.67 41.21 451.97 41.25 462.27 41.21C463.18 41.21 463.38 41.5 463.37 42.34C463.35 51.83 463.36 61.32 463.36 70.81C463.36 72.01 463.37 72.02 464.54 72.02L486.14 72.02C487.31 72.02 487.33 72.01 487.33 70.78L487.33 43.27C487.33 42.93 487.36 42.58 487.33 42.23C487.26 41.48 487.56 41.19 488.33 41.22C489.75 41.27 491.17 41.23 492.59 41.23L502.78 41.23C503.97 41.23 503.97 41.24 503.98 42.46L503.98 87.28C503.98 88.7 503.98 88.7 502.53 88.7ZM446.63 58.95C446.64 58.16 446.38 57.89 445.57 57.91C442.44 57.95 439.31 57.92 436.18 57.92C433.31 57.92 430.43 57.9 427.56 57.93C425.82 57.95 424.08 58.07 422.46 58.8C420.37 59.74 419.17 61.31 419.08 63.64C418.98 66.09 420.12 67.79 422.25 68.89C423.92 69.75 425.75 69.9 427.58 69.91C433.58 69.94 439.59 69.91 445.6 69.94C446.43 69.95 446.63 69.63 446.62 68.86C446.6 65.56 446.59 62.26 446.63 58.95Z" />
					<path id="&lt;Path&gt;" class="shp8" d="M459.33 34.47C465.02 32.43 464.98 25.05 461.45 22.19C459.7 20.77 457.68 20.23 455.23 20.24C454.6 20.3 453.73 20.29 452.88 20.53C450 21.35 447.87 23 447.29 26.08C446.75 28.96 447.25 31.65 449.8 33.45C452.74 35.54 456 35.67 459.33 34.47Z" />
					<path id="&lt;Path&gt;" class="shp8" d="M437.47 34.48C443.05 32.35 443.06 25.05 439.53 22.22C437.76 20.81 435.75 20.23 433.14 20.24C431.76 20.23 430.09 20.62 428.55 21.54C424.69 23.82 423.97 29.72 427.17 32.86C429.57 35.21 433.98 35.81 437.47 34.48Z" />
				</g>
				<path id="&lt;Path&gt;" class="shp8" d="M481.67 96.34C478.68 94.32 474.14 94.3 471.12 96.29C467.18 98.9 466.83 104.96 470.5 107.93C472.19 109.3 474.22 109.75 476.63 109.78C476.99 109.75 477.63 109.71 478.26 109.62C481.49 109.16 483.89 107.07 484.54 104.17C485.25 101.06 484.12 98.01 481.67 96.34Z" />
			</g>
		</g>
	</g>
</svg>